<svg width="22" height="22" fill="none" xmlns="http://www.w3.org/2000/svg"><path d="M11 3.328c1.323 0 2.399 1.055 2.399 2.351 0 1.293-1.076 2.348-2.399 2.348S8.601 6.972 8.601 5.679c0-1.296 1.076-2.351 2.399-2.351zm0 8.027c3.196 0 5.794-2.547 5.794-5.676C16.794 2.547 14.196 0 11 0 7.804 0 5.21 2.547 5.21 5.68c0 3.128 2.594 5.675 5.79 5.675zm2.343 4.633a11.044 11.044 0 003.363-1.368 1.644 1.644 0 00.534-2.292 1.715 1.715 0 00-2.343-.524 7.486 7.486 0 01-7.798 0 1.71 1.71 0 00-2.339.524 1.644 1.644 0 00.534 2.292 11.044 11.044 0 003.363 1.368l-3.24 3.171a1.641 1.641 0 000 2.352 1.727 1.727 0 002.403 0L11 18.394l3.184 3.117a1.715 1.715 0 002.399 0 1.641 1.641 0 000-2.352l-3.24-3.171z" fill="#030A1A"/></svg>